<?xml version="1.0" encoding="UTF-8" standalone="no"?>
<!DOCTYPE svg PUBLIC "-//W3C//DTD SVG 1.1//EN"
 "http://www.w3.org/Graphics/SVG/1.1/DTD/svg11.dtd">
<!-- Generated by graphviz version 2.40.1 (20161225.0304)
 -->
<!-- Title: dependencies Pages: 1 -->
<svg width="3094pt" height="284pt"
 viewBox="0.00 0.00 3094.00 284.00" xmlns="http://www.w3.org/2000/svg" xmlns:xlink="http://www.w3.org/1999/xlink">
<g id="graph0" class="graph" transform="scale(1 1) rotate(0) translate(4 280)">
<title>dependencies</title>
<polygon fill="#ffffff" stroke="transparent" points="-4,4 -4,-280 3090,-280 3090,4 -4,4"/>
<text text-anchor="start" x="1522.0091" y="-42.4" font-family="sans-serif" font-weight="bold" font-size="14.00" fill="#000000">Legend</text>
<polygon fill="#ffffb3" stroke="transparent" points="1309,-10 1309,-30 1329,-30 1329,-10 1309,-10"/>
<text text-anchor="start" x="1332.629" y="-15.4" font-family="sans-serif" font-size="14.00" fill="#000000"> &#160;Declarations</text>
<polygon fill="#8dd3c7" stroke="transparent" points="1422,-10 1422,-30 1442,-30 1442,-10 1422,-10"/>
<text text-anchor="start" x="1445.7251" y="-15.4" font-family="sans-serif" font-size="14.00" fill="#000000"> &#160;Module</text>
<polygon fill="#80b1d3" stroke="transparent" points="1508,-10 1508,-30 1528,-30 1528,-10 1508,-10"/>
<text text-anchor="start" x="1531.7812" y="-15.4" font-family="sans-serif" font-size="14.00" fill="#000000"> &#160;Bootstrap</text>
<polygon fill="#fdb462" stroke="transparent" points="1605,-10 1605,-30 1625,-30 1625,-10 1605,-10"/>
<text text-anchor="start" x="1628.6732" y="-15.4" font-family="sans-serif" font-size="14.00" fill="#000000"> &#160;Providers</text>
<polygon fill="#fb8072" stroke="transparent" points="1701,-10 1701,-30 1721,-30 1721,-10 1701,-10"/>
<text text-anchor="start" x="1724.7258" y="-15.4" font-family="sans-serif" font-size="14.00" fill="#000000"> &#160;Exports</text>
<g id="clust1" class="cluster">
<title>cluster_AppModule</title>
<polygon fill="none" stroke="#000000" stroke-dasharray="1,5" points="8,-70 8,-268 3078,-268 3078,-70 8,-70"/>
</g>
<g id="clust2" class="cluster">
<title>cluster_AppModule_declarations</title>
<polygon fill="none" stroke="#000000" points="542,-78 542,-130 3070,-130 3070,-78 542,-78"/>
</g>
<g id="clust19" class="cluster">
<title>cluster_AppModule_imports</title>
<polygon fill="none" stroke="#000000" points="390,-78 390,-130 534,-130 534,-78 390,-78"/>
</g>
<g id="clust21" class="cluster">
<title>cluster_AppModule_bootstrap</title>
<polygon fill="none" stroke="#000000" points="1560,-208 1560,-260 1684,-260 1684,-208 1560,-208"/>
</g>
<g id="clust22" class="cluster">
<title>cluster_AppModule_providers</title>
<polygon fill="none" stroke="#000000" points="16,-78 16,-130 382,-130 382,-78 16,-78"/>
</g>
<!-- AppComponent -->
<g id="node1" class="node">
<title>AppComponent</title>
<polygon fill="#ffffb3" stroke="#000000" points="3061.9399,-122 2956.0601,-122 2956.0601,-86 3061.9399,-86 3061.9399,-122"/>
<text text-anchor="middle" x="3009" y="-99.8" font-family="Times,serif" font-size="14.00" fill="#000000">AppComponent</text>
</g>
<!-- AppModule -->
<g id="node17" class="node">
<title>AppModule</title>
<polygon fill="#8dd3c7" stroke="#000000" points="1663.6571,-187 1660.6571,-191 1639.6571,-191 1636.6571,-187 1580.3429,-187 1580.3429,-151 1663.6571,-151 1663.6571,-187"/>
<text text-anchor="middle" x="1622" y="-164.8" font-family="Times,serif" font-size="14.00" fill="#000000">AppModule</text>
</g>
<!-- AppComponent&#45;&gt;AppModule -->
<g id="edge1" class="edge">
<title>AppComponent&#45;&gt;AppModule</title>
<path fill="none" stroke="#000000" d="M3009,-122.1532C3009,-145.7566 3009,-184 3009,-184 3009,-184 1673.888,-184 1673.888,-184"/>
<polygon fill="#000000" stroke="#000000" points="1673.8881,-180.5001 1663.888,-184 1673.888,-187.5001 1673.8881,-180.5001"/>
</g>
<!-- AuthenticationComponent -->
<g id="node2" class="node">
<title>AuthenticationComponent</title>
<polygon fill="#ffffb3" stroke="#000000" points="2938.0365,-122 2773.9635,-122 2773.9635,-86 2938.0365,-86 2938.0365,-122"/>
<text text-anchor="middle" x="2856" y="-99.8" font-family="Times,serif" font-size="14.00" fill="#000000">AuthenticationComponent</text>
</g>
<!-- AuthenticationComponent&#45;&gt;AppModule -->
<g id="edge2" class="edge">
<title>AuthenticationComponent&#45;&gt;AppModule</title>
<path fill="none" stroke="#000000" d="M2856,-122.0109C2856,-144.4852 2856,-180 2856,-180 2856,-180 1673.7645,-180 1673.7645,-180"/>
<polygon fill="#000000" stroke="#000000" points="1673.7645,-176.5001 1663.7645,-180 1673.7644,-183.5001 1673.7645,-176.5001"/>
</g>
<!-- BudgetComponent -->
<g id="node3" class="node">
<title>BudgetComponent</title>
<polygon fill="#ffffb3" stroke="#000000" points="2755.7744,-122 2634.2256,-122 2634.2256,-86 2755.7744,-86 2755.7744,-122"/>
<text text-anchor="middle" x="2695" y="-99.8" font-family="Times,serif" font-size="14.00" fill="#000000">BudgetComponent</text>
</g>
<!-- BudgetComponent&#45;&gt;AppModule -->
<g id="edge3" class="edge">
<title>BudgetComponent&#45;&gt;AppModule</title>
<path fill="none" stroke="#000000" d="M2695,-122.0449C2695,-143.6623 2695,-177 2695,-177 2695,-177 1673.7336,-177 1673.7336,-177"/>
<polygon fill="#000000" stroke="#000000" points="1673.7336,-173.5001 1663.7336,-177 1673.7335,-180.5001 1673.7336,-173.5001"/>
</g>
<!-- BudgetPostEditComponent -->
<g id="node4" class="node">
<title>BudgetPostEditComponent</title>
<polygon fill="#ffffb3" stroke="#000000" points="2616.726,-122 2447.274,-122 2447.274,-86 2616.726,-86 2616.726,-122"/>
<text text-anchor="middle" x="2532" y="-99.8" font-family="Times,serif" font-size="14.00" fill="#000000">BudgetPostEditComponent</text>
</g>
<!-- BudgetPostEditComponent&#45;&gt;AppModule -->
<g id="edge4" class="edge">
<title>BudgetPostEditComponent&#45;&gt;AppModule</title>
<path fill="none" stroke="#000000" d="M2532,-122.1289C2532,-142.5724 2532,-173 2532,-173 2532,-173 1673.7653,-173 1673.7653,-173"/>
<polygon fill="#000000" stroke="#000000" points="1673.7653,-169.5001 1663.7653,-173 1673.7653,-176.5001 1673.7653,-169.5001"/>
</g>
<!-- ChangePasswordComponent -->
<g id="node5" class="node">
<title>ChangePasswordComponent</title>
<polygon fill="#ffffb3" stroke="#000000" points="2429.752,-122 2252.248,-122 2252.248,-86 2429.752,-86 2429.752,-122"/>
<text text-anchor="middle" x="2341" y="-99.8" font-family="Times,serif" font-size="14.00" fill="#000000">ChangePasswordComponent</text>
</g>
<!-- ChangePasswordComponent&#45;&gt;AppModule -->
<g id="edge5" class="edge">
<title>ChangePasswordComponent&#45;&gt;AppModule</title>
<path fill="none" stroke="#000000" d="M2341,-122.1061C2341,-141.3391 2341,-169 2341,-169 2341,-169 1673.7643,-169 1673.7643,-169"/>
<polygon fill="#000000" stroke="#000000" points="1673.7643,-165.5001 1663.7643,-169 1673.7642,-172.5001 1673.7643,-165.5001"/>
</g>
<!-- DropdownDirective -->
<g id="node6" class="node">
<title>DropdownDirective</title>
<polygon fill="#ffffb3" stroke="#000000" points="2233.9566,-122 2106.0434,-122 2106.0434,-86 2233.9566,-86 2233.9566,-122"/>
<text text-anchor="middle" x="2170" y="-99.8" font-family="Times,serif" font-size="14.00" fill="#000000">DropdownDirective</text>
</g>
<!-- DropdownDirective&#45;&gt;AppModule -->
<g id="edge6" class="edge">
<title>DropdownDirective&#45;&gt;AppModule</title>
<path fill="none" stroke="#000000" d="M2191.3261,-122.2667C2191.3261,-140.5552 2191.3261,-166 2191.3261,-166 2191.3261,-166 1673.8639,-166 1673.8639,-166"/>
<polygon fill="#000000" stroke="#000000" points="1673.8639,-162.5001 1663.8639,-166 1673.8639,-169.5001 1673.8639,-162.5001"/>
</g>
<!-- DropdownDirective&#45;&gt;AppModule -->
<g id="edge7" class="edge">
<title>DropdownDirective&#45;&gt;AppModule</title>
<path fill="none" stroke="#000000" d="M2148.6739,-122.0336C2148.6739,-139.0597 2148.6739,-162 2148.6739,-162 2148.6739,-162 1673.7674,-162 1673.7674,-162"/>
<polygon fill="#000000" stroke="#000000" points="1673.7675,-158.5001 1663.7674,-162 1673.7674,-165.5001 1673.7675,-158.5001"/>
</g>
<!-- ExpenseEditComponent -->
<g id="node7" class="node">
<title>ExpenseEditComponent</title>
<polygon fill="#ffffb3" stroke="#000000" points="2088.0926,-122 1935.9074,-122 1935.9074,-86 2088.0926,-86 2088.0926,-122"/>
<text text-anchor="middle" x="2012" y="-99.8" font-family="Times,serif" font-size="14.00" fill="#000000">ExpenseEditComponent</text>
</g>
<!-- ExpenseEditComponent&#45;&gt;AppModule -->
<g id="edge8" class="edge">
<title>ExpenseEditComponent&#45;&gt;AppModule</title>
<path fill="none" stroke="#000000" d="M2012,-122.0091C2012,-138.0494 2012,-159 2012,-159 2012,-159 1673.7368,-159 1673.7368,-159"/>
<polygon fill="#000000" stroke="#000000" points="1673.7369,-155.5001 1663.7368,-159 1673.7368,-162.5001 1673.7369,-155.5001"/>
</g>
<!-- ExpensesComponent -->
<g id="node8" class="node">
<title>ExpensesComponent</title>
<polygon fill="#ffffb3" stroke="#000000" points="1918.2036,-122 1783.7964,-122 1783.7964,-86 1918.2036,-86 1918.2036,-122"/>
<text text-anchor="middle" x="1851" y="-99.8" font-family="Times,serif" font-size="14.00" fill="#000000">ExpensesComponent</text>
</g>
<!-- ExpensesComponent&#45;&gt;AppModule -->
<g id="edge9" class="edge">
<title>ExpensesComponent&#45;&gt;AppModule</title>
<path fill="none" stroke="#000000" d="M1851,-122.1243C1851,-136.7832 1851,-155 1851,-155 1851,-155 1673.7359,-155 1673.7359,-155"/>
<polygon fill="#000000" stroke="#000000" points="1673.7359,-151.5001 1663.7359,-155 1673.7358,-158.5001 1673.7359,-151.5001"/>
</g>
<!-- FrontPageComponent -->
<g id="node9" class="node">
<title>FrontPageComponent</title>
<polygon fill="#ffffb3" stroke="#000000" points="1765.3781,-122 1626.6219,-122 1626.6219,-86 1765.3781,-86 1765.3781,-122"/>
<text text-anchor="middle" x="1696" y="-99.8" font-family="Times,serif" font-size="14.00" fill="#000000">FrontPageComponent</text>
</g>
<!-- FrontPageComponent&#45;&gt;AppModule -->
<g id="edge10" class="edge">
<title>FrontPageComponent&#45;&gt;AppModule</title>
<path fill="none" stroke="#000000" d="M1645.1946,-122.1061C1645.1946,-122.1061 1645.1946,-140.991 1645.1946,-140.991"/>
<polygon fill="#000000" stroke="#000000" points="1641.6947,-140.9909 1645.1946,-150.991 1648.6947,-140.991 1641.6947,-140.9909"/>
</g>
<!-- HeaderComponent -->
<g id="node10" class="node">
<title>HeaderComponent</title>
<polygon fill="#ffffb3" stroke="#000000" points="1608.7437,-122 1487.2563,-122 1487.2563,-86 1608.7437,-86 1608.7437,-122"/>
<text text-anchor="middle" x="1548" y="-99.8" font-family="Times,serif" font-size="14.00" fill="#000000">HeaderComponent</text>
</g>
<!-- HeaderComponent&#45;&gt;AppModule -->
<g id="edge11" class="edge">
<title>HeaderComponent&#45;&gt;AppModule</title>
<path fill="none" stroke="#000000" d="M1594.5217,-122.1061C1594.5217,-122.1061 1594.5217,-140.991 1594.5217,-140.991"/>
<polygon fill="#000000" stroke="#000000" points="1591.0218,-140.9909 1594.5217,-150.991 1598.0218,-140.991 1591.0218,-140.9909"/>
</g>
<!-- HistoryComponent -->
<g id="node11" class="node">
<title>HistoryComponent</title>
<polygon fill="#ffffb3" stroke="#000000" points="1468.8258,-122 1345.1742,-122 1345.1742,-86 1468.8258,-86 1468.8258,-122"/>
<text text-anchor="middle" x="1407" y="-99.8" font-family="Times,serif" font-size="14.00" fill="#000000">HistoryComponent</text>
</g>
<!-- HistoryComponent&#45;&gt;AppModule -->
<g id="edge12" class="edge">
<title>HistoryComponent&#45;&gt;AppModule</title>
<path fill="none" stroke="#000000" d="M1407,-122.1243C1407,-136.7832 1407,-155 1407,-155 1407,-155 1570.2909,-155 1570.2909,-155"/>
<polygon fill="#000000" stroke="#000000" points="1570.2909,-158.5001 1580.2909,-155 1570.2909,-151.5001 1570.2909,-158.5001"/>
</g>
<!-- HistoryItemComponent -->
<g id="node12" class="node">
<title>HistoryItemComponent</title>
<polygon fill="#ffffb3" stroke="#000000" points="1327.4818,-122 1178.5182,-122 1178.5182,-86 1327.4818,-86 1327.4818,-122"/>
<text text-anchor="middle" x="1253" y="-99.8" font-family="Times,serif" font-size="14.00" fill="#000000">HistoryItemComponent</text>
</g>
<!-- HistoryItemComponent&#45;&gt;AppModule -->
<g id="edge13" class="edge">
<title>HistoryItemComponent&#45;&gt;AppModule</title>
<path fill="none" stroke="#000000" d="M1253,-122.0091C1253,-138.0494 1253,-159 1253,-159 1253,-159 1570.0303,-159 1570.0303,-159"/>
<polygon fill="#000000" stroke="#000000" points="1570.0303,-162.5001 1580.0303,-159 1570.0302,-155.5001 1570.0303,-162.5001"/>
</g>
<!-- HistoryListComponent -->
<g id="node13" class="node">
<title>HistoryListComponent</title>
<polygon fill="#ffffb3" stroke="#000000" points="1160.6038,-122 1015.3962,-122 1015.3962,-86 1160.6038,-86 1160.6038,-122"/>
<text text-anchor="middle" x="1088" y="-99.8" font-family="Times,serif" font-size="14.00" fill="#000000">HistoryListComponent</text>
</g>
<!-- HistoryListComponent&#45;&gt;AppModule -->
<g id="edge14" class="edge">
<title>HistoryListComponent&#45;&gt;AppModule</title>
<path fill="none" stroke="#000000" d="M1088,-122.0336C1088,-139.0597 1088,-162 1088,-162 1088,-162 1570.0979,-162 1570.0979,-162"/>
<polygon fill="#000000" stroke="#000000" points="1570.098,-165.5001 1580.0979,-162 1570.0979,-158.5001 1570.098,-165.5001"/>
</g>
<!-- HistoryStartComponent -->
<g id="node14" class="node">
<title>HistoryStartComponent</title>
<polygon fill="#ffffb3" stroke="#000000" points="997.7646,-122 848.2354,-122 848.2354,-86 997.7646,-86 997.7646,-122"/>
<text text-anchor="middle" x="923" y="-99.8" font-family="Times,serif" font-size="14.00" fill="#000000">HistoryStartComponent</text>
</g>
<!-- HistoryStartComponent&#45;&gt;AppModule -->
<g id="edge15" class="edge">
<title>HistoryStartComponent&#45;&gt;AppModule</title>
<path fill="none" stroke="#000000" d="M923,-122.2667C923,-140.5552 923,-166 923,-166 923,-166 1570.1085,-166 1570.1085,-166"/>
<polygon fill="#000000" stroke="#000000" points="1570.1085,-169.5001 1580.1085,-166 1570.1084,-162.5001 1570.1085,-169.5001"/>
</g>
<!-- HomePageComponent -->
<g id="node15" class="node">
<title>HomePageComponent</title>
<polygon fill="#ffffb3" stroke="#000000" points="830.2562,-122 687.7438,-122 687.7438,-86 830.2562,-86 830.2562,-122"/>
<text text-anchor="middle" x="759" y="-99.8" font-family="Times,serif" font-size="14.00" fill="#000000">HomePageComponent</text>
</g>
<!-- HomePageComponent&#45;&gt;AppModule -->
<g id="edge16" class="edge">
<title>HomePageComponent&#45;&gt;AppModule</title>
<path fill="none" stroke="#000000" d="M759,-122.1061C759,-141.3391 759,-169 759,-169 759,-169 1570.0841,-169 1570.0841,-169"/>
<polygon fill="#000000" stroke="#000000" points="1570.0841,-172.5001 1580.0841,-169 1570.084,-165.5001 1570.0841,-172.5001"/>
</g>
<!-- ProfileComponent -->
<g id="node16" class="node">
<title>ProfileComponent</title>
<polygon fill="#ffffb3" stroke="#000000" points="669.9328,-122 550.0672,-122 550.0672,-86 669.9328,-86 669.9328,-122"/>
<text text-anchor="middle" x="610" y="-99.8" font-family="Times,serif" font-size="14.00" fill="#000000">ProfileComponent</text>
</g>
<!-- ProfileComponent&#45;&gt;AppModule -->
<g id="edge17" class="edge">
<title>ProfileComponent&#45;&gt;AppModule</title>
<path fill="none" stroke="#000000" d="M610,-122.1289C610,-142.5724 610,-173 610,-173 610,-173 1570.1234,-173 1570.1234,-173"/>
<polygon fill="#000000" stroke="#000000" points="1570.1235,-176.5001 1580.1234,-173 1570.1234,-169.5001 1570.1235,-176.5001"/>
</g>
<!-- AppComponent  -->
<g id="node19" class="node">
<title>AppComponent </title>
<polygon fill="#80b1d3" stroke="#000000" points="1676.439,-252 1567.561,-252 1567.561,-216 1676.439,-216 1676.439,-252"/>
<text text-anchor="middle" x="1622" y="-229.8" font-family="Times,serif" font-size="14.00" fill="#000000">AppComponent </text>
</g>
<!-- AppModule&#45;&gt;AppComponent  -->
<g id="edge19" class="edge">
<title>AppModule&#45;&gt;AppComponent </title>
<path fill="none" stroke="#000000" stroke-dasharray="1,5" d="M1622,-187.1061C1622,-187.1061 1622,-205.991 1622,-205.991"/>
<polygon fill="#000000" stroke="#000000" points="1618.5001,-205.9909 1622,-215.991 1625.5001,-205.991 1618.5001,-205.9909"/>
</g>
<!-- AppRoutingModule -->
<g id="node18" class="node">
<title>AppRoutingModule</title>
<polygon fill="#8dd3c7" stroke="#000000" points="526.2744,-122 523.2744,-126 502.2744,-126 499.2744,-122 397.7256,-122 397.7256,-86 526.2744,-86 526.2744,-122"/>
<text text-anchor="middle" x="462" y="-99.8" font-family="Times,serif" font-size="14.00" fill="#000000">AppRoutingModule</text>
</g>
<!-- AppRoutingModule&#45;&gt;AppModule -->
<g id="edge18" class="edge">
<title>AppRoutingModule&#45;&gt;AppModule</title>
<path fill="none" stroke="#000000" d="M462,-122.0449C462,-143.6623 462,-177 462,-177 462,-177 1570.0297,-177 1570.0297,-177"/>
<polygon fill="#000000" stroke="#000000" points="1570.0297,-180.5001 1580.0297,-177 1570.0296,-173.5001 1570.0297,-180.5001"/>
</g>
<!-- AuthenticationService -->
<g id="node20" class="node">
<title>AuthenticationService</title>
<ellipse fill="#fdb462" stroke="#000000" cx="277" cy="-104" rx="97.2683" ry="18"/>
<text text-anchor="middle" x="277" y="-99.8" font-family="Times,serif" font-size="14.00" fill="#000000">AuthenticationService</text>
</g>
<!-- AuthenticationService&#45;&gt;AppModule -->
<g id="edge20" class="edge">
<title>AuthenticationService&#45;&gt;AppModule</title>
<path fill="none" stroke="#000000" d="M277,-122.0109C277,-144.4852 277,-180 277,-180 277,-180 1570.2719,-180 1570.2719,-180"/>
<polygon fill="#000000" stroke="#000000" points="1570.272,-183.5001 1580.2719,-180 1570.2719,-176.5001 1570.272,-183.5001"/>
</g>
<!-- HistoryService -->
<g id="node21" class="node">
<title>HistoryService</title>
<ellipse fill="#fdb462" stroke="#000000" cx="93" cy="-104" rx="68.9158" ry="18"/>
<text text-anchor="middle" x="93" y="-99.8" font-family="Times,serif" font-size="14.00" fill="#000000">HistoryService</text>
</g>
<!-- HistoryService&#45;&gt;AppModule -->
<g id="edge21" class="edge">
<title>HistoryService&#45;&gt;AppModule</title>
<path fill="none" stroke="#000000" d="M93,-122.1532C93,-145.7566 93,-184 93,-184 93,-184 1570.31,-184 1570.31,-184"/>
<polygon fill="#000000" stroke="#000000" points="1570.31,-187.5001 1580.31,-184 1570.3099,-180.5001 1570.31,-187.5001"/>
</g>
</g>
</svg>
